<svg id="eCPEjirJ6Tq1" xmlns="http://www.w3.org/2000/svg" xmlns:xlink="http://www.w3.org/1999/xlink" viewBox="0 0 205 145" shape-rendering="geometricPrecision" text-rendering="geometricPrecision"><defs><linearGradient id="eCPEjirJ6Tq2-fill" x1="0" y1="0.5" x2="1" y2="0.5" spreadMethod="pad" gradientUnits="objectBoundingBox"><stop id="eCPEjirJ6Tq2-fill-0" offset="0%" stop-color="rgb(2,128,144)"/><stop id="eCPEjirJ6Tq2-fill-1" offset="100%" stop-color="rgb(0,168,150)"/></linearGradient><radialGradient id="eCPEjirJ6Tq2-stroke" cx="0" cy="0" r="0.5" spreadMethod="pad" gradientUnits="objectBoundingBox" gradientTransform="matrix(1 0 0 1 0.5 0.5)"><stop id="eCPEjirJ6Tq2-stroke-0" offset="0%" stop-color="rgb(0,0,0)"/><stop id="eCPEjirJ6Tq2-stroke-1" offset="100%" stop-color="rgb(255,255,255)"/></radialGradient><linearGradient id="eCPEjirJ6Tq3-fill" x1="0" y1="0.5" x2="1" y2="0.5" spreadMethod="pad" gradientUnits="objectBoundingBox"><stop id="eCPEjirJ6Tq3-fill-0" offset="0%" stop-color="rgb(2,128,144)"/><stop id="eCPEjirJ6Tq3-fill-1" offset="100%" stop-color="rgb(0,168,150)"/></linearGradient><radialGradient id="eCPEjirJ6Tq3-stroke" cx="0" cy="0" r="0.5" spreadMethod="pad" gradientUnits="objectBoundingBox" gradientTransform="matrix(1 0 0 1 0.5 0.5)"><stop id="eCPEjirJ6Tq3-stroke-0" offset="0%" stop-color="rgb(0,0,0)"/><stop id="eCPEjirJ6Tq3-stroke-1" offset="100%" stop-color="rgb(255,255,255)"/></radialGradient><linearGradient id="eCPEjirJ6Tq4-fill" x1="0" y1="0.5" x2="1" y2="0.5" spreadMethod="pad" gradientUnits="objectBoundingBox"><stop id="eCPEjirJ6Tq4-fill-0" offset="0%" stop-color="rgb(2,128,144)"/><stop id="eCPEjirJ6Tq4-fill-1" offset="100%" stop-color="rgb(0,168,150)"/></linearGradient><radialGradient id="eCPEjirJ6Tq4-stroke" cx="0" cy="0" r="0.5" spreadMethod="pad" gradientUnits="objectBoundingBox" gradientTransform="matrix(1 0 0 1 0.5 0.5)"><stop id="eCPEjirJ6Tq4-stroke-0" offset="0%" stop-color="rgb(0,0,0)"/><stop id="eCPEjirJ6Tq4-stroke-1" offset="100%" stop-color="rgb(255,255,255)"/></radialGradient><linearGradient id="eCPEjirJ6Tq5-fill" x1="0" y1="0.5" x2="1" y2="0.5" spreadMethod="pad" gradientUnits="objectBoundingBox"><stop id="eCPEjirJ6Tq5-fill-0" offset="0%" stop-color="rgb(2,128,144)"/><stop id="eCPEjirJ6Tq5-fill-1" offset="100%" stop-color="rgb(0,168,150)"/></linearGradient><radialGradient id="eCPEjirJ6Tq5-stroke" cx="0" cy="0" r="0.5" spreadMethod="pad" gradientUnits="objectBoundingBox" gradientTransform="matrix(1 0 0 1 0.5 0.5)"><stop id="eCPEjirJ6Tq5-stroke-0" offset="0%" stop-color="rgb(0,0,0)"/><stop id="eCPEjirJ6Tq5-stroke-1" offset="100%" stop-color="rgb(255,255,255)"/></radialGradient><linearGradient id="eCPEjirJ6Tq6-fill" x1="0" y1="0.5" x2="1" y2="0.5" spreadMethod="pad" gradientUnits="objectBoundingBox"><stop id="eCPEjirJ6Tq6-fill-0" offset="0%" stop-color="rgb(2,128,144)"/><stop id="eCPEjirJ6Tq6-fill-1" offset="100%" stop-color="rgb(0,168,150)"/></linearGradient><radialGradient id="eCPEjirJ6Tq6-stroke" cx="0" cy="0" r="0.5" spreadMethod="pad" gradientUnits="objectBoundingBox" gradientTransform="matrix(1 0 0 1 0.5 0.5)"><stop id="eCPEjirJ6Tq6-stroke-0" offset="0%" stop-color="rgb(0,0,0)"/><stop id="eCPEjirJ6Tq6-stroke-1" offset="100%" stop-color="rgb(255,255,255)"/></radialGradient></defs><path id="eCPEjirJ6Tq2" d="M193.60558,307.96327C193.05524,307.96327,192.60911,306.4949,192.60911,304.68356L192.60911,201.85425C192.60911,200.04292,193.05524,198.57454,193.60558,198.57454L206.61264,198.57454C207.16298,198.57454,207.60911,200.04291,207.60911,201.85425L207.60911,304.68356C207.60911,306.49489,207.16298,307.96327,206.61264,307.96327L193.60558,307.96327ZM174.20441,286.72028C173.69828,286.72028,173.28797,285.82221,173.28797,284.71439L173.28797,221.82344C173.28797,220.71562,173.69827,219.81755,174.20441,219.81755L187.37154,219.81755C187.87767,219.81755,188.28797,220.71562,188.28797,221.82344L188.28797,284.71439C188.28797,285.82221,187.87767,286.72028,187.37154,286.72028L174.20441,286.72028ZM154.64214,270.9738C154.17169,270.9738,153.79032,270.49848,153.79032,269.91214L153.79032,236.62568C153.79032,236.03934,154.1717,235.56402,154.64214,235.56402L167.93849,235.56402C168.40894,235.56402,168.79031,236.03934,168.79031,236.62568L168.79031,269.91214C168.79031,270.49848,168.40893,270.9738,167.93849,270.9738L154.64214,270.9738Z" transform="matrix(1 0 0 1 -153.79032 -164.473833)" fill="url(#eCPEjirJ6Tq2-fill)" stroke="url(#eCPEjirJ6Tq2-stroke)" stroke-width="0" stroke-miterlimit="1"/><path id="eCPEjirJ6Tq3" d="M193.60558,307.96327C193.05524,307.96327,192.60911,306.4949,192.60911,304.68356L192.60911,201.85425C192.60911,200.04292,193.05524,198.57454,193.60558,198.57454L206.61264,198.57454C207.16298,198.57454,207.60911,200.04291,207.60911,201.85425L207.60911,304.68356C207.60911,306.49489,207.16298,307.96327,206.61264,307.96327L193.60558,307.96327ZM174.20441,286.72028C173.69828,286.72028,173.28797,285.82221,173.28797,284.71439L173.28797,221.82344C173.28797,220.71562,173.69827,219.81755,174.20441,219.81755L187.37154,219.81755C187.87767,219.81755,188.28797,220.71562,188.28797,221.82344L188.28797,284.71439C188.28797,285.82221,187.87767,286.72028,187.37154,286.72028L174.20441,286.72028ZM154.64214,270.9738C154.17169,270.9738,153.79032,270.49848,153.79032,269.91214L153.79032,236.62568C153.79032,236.03934,154.1717,235.56402,154.64214,235.56402L167.93849,235.56402C168.40894,235.56402,168.79031,236.03934,168.79031,236.62568L168.79031,269.91214C168.79031,270.49848,168.40893,270.9738,167.93849,270.9738L154.64214,270.9738Z" transform="matrix(-1 0 0 -1 358.697338 342.063978)" fill="url(#eCPEjirJ6Tq3-fill)" stroke="url(#eCPEjirJ6Tq3-stroke)" stroke-width="0" stroke-miterlimit="1"/><rect id="eCPEjirJ6Tq4" width="88.046254" height="163.666121" rx="0" ry="0" transform="matrix(1.009424 0 0 0.131561 58.007589 78.029033)" fill="url(#eCPEjirJ6Tq4-fill)" stroke="url(#eCPEjirJ6Tq4-stroke)" stroke-width="0" stroke-miterlimit="1"/><ellipse id="eCPEjirJ6Tq5" rx="18.75" ry="18.75" transform="matrix(1 0 0 1 102.44559 20.260562)" fill="url(#eCPEjirJ6Tq5-fill)" stroke="url(#eCPEjirJ6Tq5-stroke)" stroke-width="0" stroke-miterlimit="1"/><path id="eCPEjirJ6Tq6" d="M213.28208,90.95422C229.85062,90.95422,243.28208,104.38568,243.28208,120.95422L183.28208,120.95422C183.28208,104.38568,196.71354,90.95422,213.28208,90.95422Z" transform="matrix(1 0 0 1 -110.83649 -48.47466)" fill="url(#eCPEjirJ6Tq6-fill)" stroke="url(#eCPEjirJ6Tq6-stroke)" stroke-width="0" stroke-miterlimit="1"/></svg>